<svg id="Calque_1" data-name="Calque 1" xmlns="http://www.w3.org/2000/svg" viewBox="0 0 1591.03 478.37"><defs><style>.cls-1{fill:#fbd50d;}.cls-2{fill:#767479;}</style></defs><title>simde</title><path class="cls-1" d="M222,1152.92a250.41,250.41,0,0,0,72.48,15.13c23.51,1.24,63.07-8.25,48.06-43.27-8.7-20.32-45.77-18.07-64.68-24.53-25.82-8.83-53.59-19.33-60.47-48s-8.91-63,1.86-91.08c12.94-33.73,44.47-41.3,77-44.4a424.06,424.06,0,0,1,59-1.66c20.84.79,46.54,4.19,67.84,8.6l-5.47,70.81c-25.9-4-117.8-28-119,14.78-1,34.87,47.53,31.8,72.25,38.37,29.73,7.9,56.34,24.18,59.07,56.94,2.18,26.07.49,59.78-10.6,84.26-14.49,32-42.92,44.52-76.06,48.69-44.37,5.59-95.58-4-138.83-14.52Z" transform="translate(-204.49 -760.81)"/><rect class="cls-1" x="292.82" y="0.32" width="91.88" height="96.16"/><path class="cls-2" d="M1795.15,1108.26s.82-64.53,0-86c-.72-18.54-3.9-50.62-24.43-70.09s-43.89-32.21-64.07-34-66.05-5.64-98.06,5c-21,7-46,28.68-54.51,46.73s-12.85,31.62-12.85,63.78c0,0-1.91,83.36.56,111,1.26,14.08,5.39,33.14,22.59,51.66s27.12,25.14,46.3,32.41,47,9.76,69.44,9.76,89.28-12.41,111.11-19l-12.37-67.67s-72.56,14.87-94.87,14.87-43.18-7.08-52-21.24v-37.17Zm-164.06-67.44v-35.9c2.71-5.08,10.16-20.66,42-20.66s37.25,23,37.25,23v33.53Z" transform="translate(-204.49 -760.81)"/><polygon class="cls-1" points="384.7 334.75 384.7 138.68 292.82 138.68 292.82 339.83 384.7 334.75"/><polygon class="cls-1" points="292.82 364.94 292.82 473.63 384.7 473.63 384.7 359.86 292.82 364.94"/><path class="cls-2" d="M764.28,1085.88v-80.77s24.11-16.58,41.44-20.35,21.9-5.58,35.64-2.3,13.42,23.24,13.42,40.91v57.51l92.56-5.12v-71.35s38.11-23.4,60.85-24.07,27.41,7.68,28.74,20.22c.47,4.34.61,33.69.6,70.21l89.66-5V966.3s-.66-58.16-46.8-69.53-90.93,5.35-104.3,9.36-47.5,18.62-47.5,18.62-6.2-33.48-49.24-31.88S800.56,904.32,790,908.33s-44.87,17.88-44.87,17.88V899.5H672.36V1091Z" transform="translate(-204.49 -760.81)"/><polygon class="cls-2" points="467.87 355.26 467.87 473.63 559.79 473.63 559.79 350.18 467.87 355.26"/><path class="cls-2" d="M1037.5,1095.89c-.12,64.78-.57,138.55-.57,138.55h90.26V1090.93Z" transform="translate(-204.49 -760.81)"/><path class="cls-2" d="M854.78,1106v128.45h92.56V1100.87Z" transform="translate(-204.49 -760.81)"/><path class="cls-2" d="M1282.76,1057.21c.07-23,.2-43.38.2-43.38s.54-26.31,7.12-34.53,25.77-8.23,35.09-7.68,40,5.48,52.07,12.06V1052l91.26-5V760.81l-91.52,11V904s-52.54-13.94-83-11.2-54.07,10.22-68.72,22.78-31.4,37.68-31.4,78.5c0,18.31-.45,43-.61,68.06Z" transform="translate(-204.49 -760.81)"/><path class="cls-2" d="M1377.24,1077.1v54s-12.61,17-34,24.67-34,3.29-43.31,0-16.45-20.83-17-38.37c-.19-5.91-.25-19.58-.25-35.11l-89.54,5c.11,22,.63,42.79,2.13,57.92,1.19,12,5.32,34.68,12.13,46.72s22.12,28.14,32,33.5c12.68,6.85,36,13.07,54.31,13.07s59.13-8.37,87.39-28.78l6-4.82,9.27,29.55h72V1072.05Z" transform="translate(-204.49 -760.81)"/></svg>